<?xml version="1.0" encoding="UTF-8"?>
<svg id="Layer_2" data-name="Layer 2" xmlns="http://www.w3.org/2000/svg" viewBox="0 0 62.54 80.75">
  <defs>
    <style>
      .cls-1 {
        fill: #fff;
        stroke: #fff;
        stroke-miterlimit: 10;
        stroke-width: .5px;
      }
    </style>
  </defs>
  <g id="Layer_1-2" data-name="Layer 1">
    <path class="cls-1" d="M62.29,14.48v34.89l-3.39,3.39c-.54.44-1.08.88-1.64,1.29l.18.18-7.48,7.47-1.24,1.25-8.73,8.72-2.37,2.37-6.35,6.35L5.11,54.23v-.02s-.07-.06-.11-.09L.25,49.37V14.48l.32.32,4.28,4.28,7.74,7.74v17.44l9.96,9.96,2.37,2.38,6.35,6.35.15-.15,6.2-6.2,2.37-2.38,8.72-8.72,1.25-1.24v-17.45l11.68-11.68.65-.65h0Z"/>
    <path class="cls-1" d="M31.28.25C20.78.25,12.26,8.77,12.26,19.27s8.52,19.02,19.02,19.02,19.02-8.51,19.02-19.02S41.79.25,31.28.25ZM31.28,25.81c-3.61,0-6.54-2.92-6.54-6.54s2.93-6.54,6.54-6.54,6.54,2.93,6.54,6.54-2.93,6.54-6.54,6.54Z"/>
  </g>
</svg>